#!OML:ASF E:\I on waltz\Acrobat_Osman\acrobat\cartwheel_test 2\Patient 1\Session 1\acrobat.ASF
:FULLY-SPECIFIED
:DEGREES
152
root 5.663 15.8066 7.94295 -533.877 3.92654 182.067
lowerback 4.29026 0.632247 -5.31838
upperback 3.00264 0.812284 1.48131
thorax 0.605308 0.38034 4.48844
lowerneck -8.53741 -6.21817 -8.24884
upperneck 9.83045 -7.9047 5.78295
head 4.9082 -3.83482 2.56221
rclavicle -9.93923e-017 -2.78299e-015
rhumerus -29.001 12.1678 -89.2594
rradius 34.399
rwrist -6.88714
rhand -20.4838 21.5805
rfingers 7.12502
rthumb 5.87273 -8.31814
lclavicle -9.93923e-017 -2.78299e-015
lhumerus -27.2852 -13.364 89.7658
lradius 33.4988
lwrist 28.663
lhand -16.1928 57.1085
lfingers 7.12502
lthumb 10.0141 86.8503
rfemur -12.2317 1.88949 25.0293
rtibia 29.346
rfoot -20.7206 -5.69362
rtoes -6.25369
lfemur -17.2057 3.4611 -22.9035
ltibia 36.9252
lfoot -200.333 183.487
ltoes -15.8086
153
root 5.65496 15.8419 7.88653 -533.801 3.97477 182.088
lowerback 3.62308 0.591193 -5.23348
upperback 2.85917 0.772953 1.52893
thorax 0.833474 0.349653 4.49714
lowerneck -8.58631 -6.18292 -8.38751
upperneck 9.8529 -7.84318 5.84516
head 4.92705 -3.80519 2.60689
rclavicle -2.06736e-014 8.74653e-015
rhumerus -31.8094 10.3971 -88.1804
rradius 32.0183
rwrist -5.0741
rhand -19.4776 20.9448
rfingers 7.12502
rthumb 6.84409 -8.92457
lclavicle -2.06736e-014 8.74653e-015
lhumerus -29.395 -11.0455 89.1182
lradius 29.3086
lwrist 24.8586
lhand -15.1943 56.5244
lfingers 7.12502
lthumb 10.9773 86.2174
rfemur -11.5305 2.24634 25.0232
rtibia 28.2983
rfoot -20.301 -6.04286
rtoes -6.3741
lfemur -16.3878 3.41857 -22.9243
ltibia 35.7035
lfoot -199.893 183.57
ltoes -15.9767
154
root 5.6457 15.8784 7.83181 -533.722 3.9822 181.988
lowerback 2.9718 0.546956 -5.218
upperback 2.71138 0.727108 1.52232
thorax 1.04984 0.316066 4.48823
lowerneck -8.71996 -6.13833 -8.49983
upperneck 10.0466 -7.76384 5.8672
head 5.00896 -3.76572 2.63273
rclavicle -1.24737e-014 -1.35174e-014
rhumerus -34.656 8.82537 -86.83
rradius 29.8734
rwrist -3.09594
rhand -18.6726 21.2749
rfingers 7.12502
rthumb 7.62121 -8.56779
lclavicle -1.24737e-014 -1.35174e-014
lhumerus -31.4753 -8.2474 87.8966
lradius 25.3158
lwrist 20.3133
lhand -14.6374 57.0147
lfingers 7.12502
lthumb 11.5144 86.6784
rfemur -10.8775 2.62314 24.882
rtibia 27.2882
rfoot -19.928 -6.47717
rtoes -6.8558
lfemur -15.6108 3.39545 -23.0801
ltibia 34.5146
lfoot -199.526 183.627
ltoes -16.3642
155
root 5.63899 15.9113 7.78406 -533.735 3.95271 181.887
lowerback 2.50906 0.490705 -5.24109
upperback 2.58208 0.659847 1.52901
thorax 1.18253 0.275174 4.51316
lowerneck -9.02547 -6.11538 -8.61369
upperneck 10.3806 -7.6981 5.84747
head 5.1626 -3.7325 2.63898
rclavicle 7.05686e-015 -3.18055e-015
rhumerus -37.3583 7.29647 -85.1553
rradius 27.8931
rwrist -0.677004
rhand -17.6742 21.5062
rfingers 7.12502
rthumb 8.58479 -8.29925
lclavicle 7.05686e-015 -3.18055e-015
lhumerus -33.7184 -5.30309 86.1349
lradius 21.975
lwrist 15.673
lhand -14.8521 55.4097
lfingers 7.12502
lthumb 11.3074 85.0849
rfemur -10.1251 2.99681 24.7759
rtibia 26.2518
rfoot -19.6997 -6.96085
rtoes -7.0104
lfemur -14.7739 3.40249 -23.1924
ltibia 33.3151
lfoot -199.315 183.586
ltoes -16.2283
156
root 5.63273 15.9274 7.74329 -533.676 3.94586 181.92
lowerback 2.03918 0.410267 -5.1643
upperback 2.45412 0.562879 1.57356
thorax 1.32455 0.220893 4.52065
lowerneck -9.31171 -6.06257 -8.64305
upperneck 10.6081 -7.60451 5.83773
head 5.27516 -3.68297 2.63926
rclavicle -2.90723e-015 -2.48481e-015
rhumerus -39.8801 5.86737 -83.208
rradius 26.1541
rwrist 2.12214
rhand -16.4868 21.2359
rfingers 7.12502
rthumb 9.73048 -8.51928
lclavicle -2.90723e-015 -2.48481e-015
lhumerus -36.0535 -2.2942 83.8916
lradius 19.346
lwrist 11.392
lhand -16.1141 52.5107
lfingers 7.12502
lthumb 10.0901 82.2488
rfemur -9.52696 3.33645 24.8202
rtibia 25.3014
rfoot -19.4834 -7.3899
rtoes -6.91047
lfemur -14.1018 3.42044 -23.158
ltibia 32.1775
lfoot -199.063 183.451
ltoes -15.7414
157
root 5.62239 15.9531 7.70061 -533.572 4.03375 181.998
lowerback 1.5223 0.353379 -4.98903
upperback 2.32684 0.500014 1.5989
thorax 1.49032 0.185018 4.4515
lowerneck -9.40329 -5.99028 -8.55539
upperneck 10.6637 -7.50858 5.79861
head 5.29572 -3.63319 2.61888
rclavicle -9.6659e-015 5.86415e-015
rhumerus -42.2956 4.50084 -80.9946
rradius 24.6526
rwrist 5.07896
rhand -15.4397 21.4167
rfingers 7.12502
rthumb 10.7407 -8.2887
lclavicle -9.6659e-015 5.86415e-015
lhumerus -38.5466 0.215926 81.4969
lradius 17.6802
lwrist 8.25902
lhand -16.6348 51.8314
lfingers 7.12502
lthumb 9.58774 81.5933
rfemur -9.02925 3.69607 24.8666
rtibia 24.4421
rfoot -19.2424 -7.7492
rtoes -7.05766
lfemur -13.4652 3.28958 -23.1124
ltibia 31.0822
lfoot -198.87 183.491
ltoes -15.5001
158
root 5.6095 15.9672 7.66373 -533.53 4.17564 181.996
lowerback 1.03748 0.333884 -4.82824
upperback 2.26959 0.489371 1.57608
thorax 1.70505 0.174496 4.34017
lowerneck -9.45952 -5.95673 -8.43904
upperneck 10.6075 -7.46579 5.71999
head 5.27693 -3.61235 2.57857
rclavicle -9.41742e-015 -5.1684e-015
rhumerus -44.4382 2.94479 -78.4124
rradius 23.3584
rwrist 7.91406
rhand -14.8186 21.9411
rfingers 7.12502
rthumb 11.3397 -7.73232
lclavicle -9.41742e-015 -5.1684e-015
lhumerus -41.1314 1.62698 79.4309
lradius 17.0433
lwrist 6.8282
lhand -15.7321 52.966
lfingers 7.12502
lthumb 10.4586 82.6859
rfemur -8.57132 4.04639 24.8087
rtibia 23.7633
rfoot -19.0822 -8.03659
rtoes -7.09712
lfemur -12.799 3.04239 -23.1723
ltibia 30.1051
lfoot -199.003 183.728
ltoes -15.1593
159
root 5.59723 15.9718 7.63522 -533.461 4.39793 181.879
lowerback 0.489244 0.349074 -4.75698
upperback 2.27797 0.530919 1.49226
thorax 2.01802 0.186168 4.21778
lowerneck -9.56742 -5.96 -8.38654
upperneck 10.482 -7.47327 5.7446
head 5.25534 -3.61211 2.5753
rclavicle -4.82053e-015 -1.56046e-014
rhumerus -46.143 1.07696 -75.406
rradius 22.17
rwrist 10.6322
rhand -14.3509 22.098
rfingers 7.12502
rthumb 11.7908 -7.55007
lclavicle -4.82053e-015 -1.56046e-014
lhumerus -43.547 2.22212 77.6828
lradius 16.8674
lwrist 6.68933
lhand -15.0202 53.228
lfingers 7.12502
lthumb 11.1452 82.912
rfemur -8.23947 4.29984 24.6197
rtibia 23.2113
rfoot -19.1011 -8.18269
rtoes -6.83209
lfemur -12.2325 2.8743 -23.3798
ltibia 29.1451
lfoot -198.922 184.036
ltoes -15.1962
160
root 5.58817 15.9718 7.61374 -533.37 4.6763 181.721
lowerback -0.000118131 0.374516 -4.79942
upperback 2.26224 0.583759 1.41178
thorax 2.27174 0.203463 4.16351
lowerneck -9.59919 -5.9604 -8.34016
upperneck 10.3393 -7.48444 5.80175
head 5.21742 -3.61277 2.58505
rclavicle -3.23025e-016 -9.44227e-015
rhumerus -47.5965 -0.903796 -72.0222
rradius 21.0877
rwrist 13.1567
rhand -13.9508 22.2735
rfingers 7.12502
rthumb 12.1766 -7.35214
lclavicle -3.23025e-016 -9.44227e-015
lhumerus -45.8348 2.41114 76.2272
lradius 17.0038
lwrist 7.3333
lhand -14.9163 52.7416
lfingers 7.12502
lthumb 11.2455 82.4202
rfemur -8.09803 4.42373 24.3901
rtibia 22.9296
rfoot -19.3549 -8.2006
rtoes -6.74803
lfemur -11.789 2.82349 -23.6343
ltibia 28.2996
lfoot -198.591 184.282
ltoes -15.3062
161
root 5.58159 15.971 7.59838 -533.325 4.9471 181.553
lowerback -0.348818 0.374388 -4.94809
upperback 2.22336 0.597959 1.36326
thorax 2.42597 0.202418 4.20076
lowerneck -9.50017 -5.9241 -8.25624
upperneck 10.1873 -7.45146 5.79871
head 5.14785 -3.59586 2.57754
rclavicle -8.22472e-015 6.16232e-015
rhumerus -48.8936 -2.89468 -68.4132
rradius 20.183
rwrist 15.2449
rhand -13.7027 22.2896
rfingers 7.12502
rthumb 12.4158 -7.32166
lclavicle -8.22472e-015 6.16232e-015
lhumerus -48.0223 2.29457 75.1558
lradius 17.5652
lwrist 8.63187
lhand -14.95 52.358
lfingers 7.12502
lthumb 11.213 82.0384
rfemur -8.05623 4.46839 24.1405
rtibia 22.8826
rfoot -19.5441 -8.06754
rtoes -7.10914
lfemur -11.3677 2.82639 -23.8821
ltibia 27.6008
lfoot -198.612 184.396
ltoes -14.5759
162
root 5.57629 15.9718 7.59129 -533.371 5.22965 181.317
lowerback -0.54976 0.36755 -5.21496
upperback 2.21742 0.602637 1.30302
thorax 2.5318 0.195935 4.29126
lowerneck -9.34236 -5.86524 -8.13003
upperneck 10.0125 -7.39142 5.75051
head 5.05626 -3.56788 2.55331
rclavicle -1.98785e-016 -7.95139e-016
rhumerus -49.9294 -4.96148 -64.7243
rradius 19.4621
rwrist 16.8297
rhand -13.7348 21.6438
rfingers 7.12502
rthumb 12.3848 -7.96937
lclavicle -1.98785e-016 -7.95139e-016
lhumerus -49.8236 1.97996 74.3457
lradius 18.1789
lwrist 10.173
lhand -14.7328 52.1045
lfingers 7.12502
lthumb 11.4225 81.7734
rfemur -8.09595 4.46804 23.7925
rtibia 23.061
rfoot -19.6461 -7.69798
rtoes -7.37797
lfemur -10.9743 2.75089 -24.1973
ltibia 27.064
lfoot -198.867 184.559
ltoes -13.3963
163
root 5.57198 15.9696 7.59504 -533.507 5.54198 181.096
lowerback -0.632504 0.37592 -5.49637
upperback 2.29109 0.628226 1.26148
thorax 2.65117 0.198736 4.40945
lowerneck -9.27957 -5.82912 -8.04057
upperneck 9.86609 -7.35223 5.71006
head 4.99267 -3.54974 2.53271
rclavicle -9.69075e-016 -3.97569e-016
rhumerus -50.5911 -7.02566 -61.0962
rradius 18.8684
rwrist 18.0565
rhand -14.2157 21.2285
rfingers 7.12502
rthumb 11.9211 -8.41211
lclavicle -9.69075e-016 -3.97569e-016
lhumerus -51.0311 1.93361 73.4395
lradius 18.4425
lwrist 11.1653
lhand -14.3849 51.7002
lfingers 7.12502
lthumb 11.7579 81.3502
rfemur -8.22694 4.3982 23.444
rtibia 23.4705
rfoot -19.7644 -7.09898
rtoes -6.9572
lfemur -10.6044 2.66813 -24.5195
ltibia 26.68
lfoot -199.025 184.949
ltoes -13.0076
164
root 5.56788 15.9629 7.61161 -533.621 5.89047 180.939
lowerback -0.693102 0.376424 -5.73858
upperback 2.40277 0.643608 1.27162
thorax 2.79861 0.195249 4.55927
lowerneck -9.27625 -5.80036 -8.07279
upperneck 9.77817 -7.30526 5.68815
head 4.962 -3.53021 2.53571
rclavicle 1.03368e-014 6.16232e-015
rhumerus -50.8624 -9.08687 -57.6452
rradius 18.3036
rwrist 19.2658
rhand -15.077 21.409
rfingers 7.12502
rthumb 11.0905 -8.27798
lclavicle 1.03368e-014 6.16232e-015
lhumerus -51.7851 2.39499 72.3503
lradius 18.5116
lwrist 11.4413
lhand -14.3003 51.264
lfingers 7.12502
lthumb 11.8395 80.9093
rfemur -8.53691 4.29944 23.1464
rtibia 24.0943
rfoot -19.7827 -6.3055
rtoes -6.02701
lfemur -10.3779 2.65155 -24.8001
ltibia 26.4508
lfoot -199.084 185.516
ltoes -13.2646
165
root 5.56323 15.9592 7.64075 -533.678 6.15244 180.795
lowerback -0.616573 0.325117 -5.96631
upperback 2.40973 0.575727 1.29412
thorax 2.77018 0.156947 4.70904
lowerneck -9.17038 -5.7334 -8.11495
upperneck 9.81478 -7.20633 5.60988
head 4.94746 -3.48923 2.52885
rclavicle -3.35449e-015 -2.0276e-014
rhumerus -50.9444 -10.9807 -54.6482
rradius 17.9387
rwrist 20.1338
rhand -15.7274 21.2358
rfingers 7.12502
rthumb 10.4631 -8.48379
lclavicle -3.35449e-015 -2.0276e-014
lhumerus -52.3246 3.02035 71.2812
lradius 18.5688
lwrist 11.2494
lhand -14.2447 51.3533
lfingers 7.12502
lthumb 11.8932 80.9955
rfemur -9.07723 4.09472 22.847
rtibia 24.9358
rfoot -19.6313 -5.3534
rtoes -5.22059
lfemur -10.4078 2.42653 -25.0587
ltibia 26.3931
lfoot -199.132 186.07
ltoes -12.1567
